<?xml version="1.0" encoding="UTF-8" standalone="no"?>
<!-- Created with Inkscape (http://www.inkscape.org/) -->

<svg
   width="48"
   height="48"
   viewBox="0 0 12.7 12.7"
   version="1.1"
   id="svg1"
   inkscape:version="1.3.2 (091e20e, 2023-11-25, custom)"
   sodipodi:docname="img.svg"
   xmlns:inkscape="http://www.inkscape.org/namespaces/inkscape"
   xmlns:sodipodi="http://sodipodi.sourceforge.net/DTD/sodipodi-0.dtd"
   xmlns="http://www.w3.org/2000/svg"
   xmlns:svg="http://www.w3.org/2000/svg">
  <sodipodi:namedview
     id="namedview1"
     pagecolor="#ffffff"
     bordercolor="#000000"
     borderopacity="0.25"
     inkscape:showpageshadow="2"
     inkscape:pageopacity="0.0"
     inkscape:pagecheckerboard="0"
     inkscape:deskcolor="#d1d1d1"
     inkscape:document-units="mm"
     inkscape:zoom="16.549473"
     inkscape:cx="23.656342"
     inkscape:cy="24.321016"
     inkscape:window-width="1920"
     inkscape:window-height="1017"
     inkscape:window-x="-8"
     inkscape:window-y="-8"
     inkscape:window-maximized="1"
     inkscape:current-layer="layer1" />
  <defs
     id="defs1" />
  <g
     inkscape:label="Layer 1"
     inkscape:groupmode="layer"
     id="layer1">
    <path
       id="path4"
       style="fill:#4d4d4d;stroke-width:0.306587"
       d="M 6.3872073,1.0712524 A 3.9249111,3.9009299 0 0 0 2.4618652,4.9723063 3.9249111,3.9009299 0 0 0 6.3872073,8.8728434 3.9249111,3.9009299 0 0 0 10.312032,4.9723063 3.9249111,3.9009299 0 0 0 6.3872073,1.0712524 Z m -0.03204,0.8950358 A 3.0136283,2.9976411 0 0 1 9.3684208,4.9640381 3.0136283,2.9976411 0 0 1 6.3551677,7.9617879 3.0136283,2.9976411 0 0 1 3.3413981,4.9640381 3.0136283,2.9976411 0 0 1 6.3551673,1.9662882 Z" />
    <rect
       style="fill:#ffcc00;stroke-width:0.264583"
       id="rect1"
       width="10.056086"
       height="7.3062496"
       x="1.294981"
       y="4.9081368" />
    <rect
       style="fill:#d4aa00;stroke-width:0.264583"
       id="rect2"
       width="0.55955964"
       height="7.2582874"
       x="10.807494"
       y="4.9241247" />
    <rect
       style="fill:#ffdd55;stroke-width:0.264583"
       id="rect3"
       width="0.57554704"
       height="7.322237"
       x="1.2789934"
       y="4.8921499" />
    <ellipse
       style="fill:#1a1a1a;stroke-width:0.264583"
       id="path3"
       cx="6.4189477"
       cy="7.546061"
       rx="1.2869871"
       ry="1.2949809" />
    <rect
       style="fill:#1a1a1a;stroke-width:0.264583"
       id="rect4"
       width="1.071157"
       height="3.5332193"
       x="5.8993568"
       y="7.4661236"
       ry="0.53557849" />
  </g>
</svg>
